<svg xmlns="http://www.w3.org/2000/svg" viewBox="0 0 900 560" role="img" aria-labelledby="title desc">
<title id="title">Imposto sobre um bem: restrição orçamentária, receita tributária e peso morto</title>
<desc id="desc">Diagrama didático com duas restrições orçamentárias, curvas de indiferença, receita tributária e variação equivalente.</desc>
<style>
  text{font-family:Arial, Helvetica, sans-serif;font-size:18px;fill:#111}.small{font-size:15px}.label{font-size:16px}.axis{stroke:#111;stroke-width:2.2}.line{stroke:#111;stroke-width:3;fill:none}.thin{stroke:#555;stroke-width:1.5;fill:none}.dash{stroke:#777;stroke-width:1.4;stroke-dasharray:7 7}.tax{stroke:#222;stroke-width:2.5}.curve{stroke:#111;stroke-width:2.4;fill:none}.shade{fill:#e8e8e8;stroke:#555;stroke-width:1.5}
</style>
<line class="axis" x1="95" y1="490" x2="820" y2="490"/><line class="axis" x1="95" y1="490" x2="95" y2="65"/>
<polygon points="820,490 805,482 805,498" fill="#111"/><polygon points="95,65 87,80 103,80" fill="#111"/>
<text x="610" y="530">Cevada por ano</text><text x="20" y="55" transform="rotate(-90 20 55)">Milho por ano</text>
<line class="line" x1="95" y1="105" x2="770" y2="490"/><line class="line" x1="95" y1="105" x2="370" y2="490"/>
<line class="thin" x1="95" y1="205" x2="520" y2="490"/>
<path class="curve" d="M420,410 C510,340 585,290 690,255"/><path class="curve" d="M260,420 C335,350 395,307 490,285"/>
<text x="703" y="253">i</text><text x="505" y="285">ii</text>
<circle cx="560" cy="325" r="5" fill="#111"/><text x="574" y="320">E₁</text>
<circle cx="318" cy="245" r="5" fill="#111"/><text x="333" y="240">E₂</text>
<circle cx="440" cy="366" r="5" fill="#111"/><text x="453" y="372">E₃</text>
<line class="dash" x1="318" y1="245" x2="318" y2="490"/><line class="dash" x1="440" y1="366" x2="440" y2="490"/>
<line class="dash" x1="95" y1="245" x2="318" y2="245"/><line class="dash" x1="95" y1="366" x2="440" y2="366"/>
<text x="305" y="515">B₂</text><text x="428" y="515">B₃</text><text x="60" y="250">C₂</text><text x="60" y="371">C₃</text>
<rect class="shade" x="318" y="245" width="58" height="121" opacity="0.75"/>
<line class="tax" x1="376" y1="245" x2="376" y2="366"/><text x="386" y="308">Receita tributária</text>
<path class="thin" d="M507,312 C555,303 585,285 625,268"/><text x="635" y="268">Variação equivalente</text>
<text x="104" y="102">A</text><text x="760" y="480">D</text><text x="358" y="486">F</text>
<text x="125" y="535" class="small">Figura redesenhada para fins didáticos, inspirada na lógica gráfica de Rosen.</text>
</svg>
