<svg xmlns="http://www.w3.org/2000/svg" viewBox="0 0 900 560" role="img" aria-labelledby="title desc">
<title id="title">Mensuração do peso morto com curva de demanda</title>
<desc id="desc">Curva de demanda com imposto por unidade, receita tributária e triângulo de peso morto.</desc>
<style>
  text{font-family:Arial, Helvetica, sans-serif;font-size:18px;fill:#111}.small{font-size:15px}.axis{stroke:#111;stroke-width:2.2}.line{stroke:#111;stroke-width:3;fill:none}.thin{stroke:#555;stroke-width:1.5;fill:none}.dash{stroke:#777;stroke-width:1.4;stroke-dasharray:7 7}.shade{fill:#e8e8e8;stroke:#555;stroke-width:1.5}.pm{fill:#cfcfcf;stroke:#333;stroke-width:1.5}</style>
<line class="axis" x1="100" y1="490" x2="815" y2="490"/><line class="axis" x1="100" y1="490" x2="100" y2="70"/>
<polygon points="815,490 800,482 800,498" fill="#111"/><polygon points="100,70 92,85 108,85" fill="#111"/>
<text x="610" y="530">Cevada por ano</text><text x="20" y="65" transform="rotate(-90 20 65)">Preço por unidade</text>
<line class="line" x1="140" y1="90" x2="705" y2="490"/><text x="720" y="486">D</text>
<line class="line" x1="120" y1="220" x2="765" y2="220"/><line class="line" x1="120" y1="350" x2="765" y2="350"/>
<text x="780" y="225">S'ᵦ</text><text x="780" y="355">Sᵦ</text>
<line class="dash" x1="465" y1="220" x2="465" y2="490"/><line class="dash" x1="615" y1="350" x2="615" y2="490"/>
<text x="452" y="515">q₂</text><text x="602" y="515">q₁</text>
<rect class="shade" x="180" y="220" width="285" height="130" opacity="0.75"/>
<polygon class="pm" points="465,220 615,350 465,350" opacity="0.85"/>
<circle cx="465" cy="220" r="5" fill="#111"/><text x="477" y="216">f</text>
<circle cx="465" cy="350" r="5" fill="#111"/><text x="475" y="372">d</text>
<circle cx="615" cy="350" r="5" fill="#111"/><text x="627" y="355">i</text>
<text x="77" y="225">(1+t)Pᵦ</text><text x="82" y="355">Pᵦ</text>
<path class="thin" d="M340,275 C390,270 420,248 455,230"/><text x="245" y="270">Receita tributária</text>
<path class="thin" d="M545,310 C575,307 598,323 610,343"/><text x="557" y="302">Peso morto</text>
<text x="125" y="535" class="small">Figura redesenhada para fins didáticos, inspirada na lógica gráfica de Rosen.</text>
</svg>
